<svg width="512" height="512" viewBox="0 0 512 512" fill="none" xmlns="http://www.w3.org/2000/svg">
<g clip-path="url(#clip0_278_4290)">
<rect width="512" height="512" rx="256" fill="#B6D6FD"/>
<path d="M369.715 447.594L378.692 443.554L358.014 399.606C342.9 365.815 312.941 355.333 301.277 352.456C292.966 347.451 283.42 344.87 273.719 345.004V334.103C313.741 327.127 333.486 295.681 342.519 261.586C347.284 259.68 353.63 254.954 357.594 242.528C360.968 232.008 358.471 225.871 354.945 222.345C354.945 222.345 361.673 208.414 354.107 202.182C364.474 194.92 359.138 183.924 350.905 179.483C351.458 176.396 352.525 167.248 346.884 162.064C344.976 160.304 342.466 159.342 339.87 159.377C339.508 156.08 337.755 144.55 330.608 141.214C328.532 140.258 326.191 140.043 323.976 140.605L323.671 140.3C322.241 136.488 317.686 125.968 309.892 124.386C307.744 123.973 305.519 124.281 303.564 125.263C302.173 122.347 294.702 107.748 286.641 111.369C284.43 112.679 282.562 114.495 281.19 116.667L280.618 116.515C280.98 112.894 279.875 102.812 256.452 103.003C233.22 102.831 231.963 112.741 232.287 116.343L231.677 116.496C230.308 114.36 228.462 112.573 226.283 111.274C218.203 107.653 210.751 122.251 209.36 125.167C207.404 124.188 205.18 123.879 203.032 124.291C195.752 125.758 191.292 135.001 189.558 139.366L188.472 140.414C186.392 139.971 184.224 140.219 182.297 141.119C175.15 144.454 173.397 155.985 173.035 159.282C170.439 159.248 167.93 160.21 166.021 161.969C160.399 167.153 161.466 176.301 162.019 179.388C153.767 183.829 148.43 194.825 158.798 202.086C151.175 208.299 157.94 222.212 157.96 222.231C154.453 225.776 151.937 231.912 155.31 242.433C157.94 250.57 161.562 255.449 165.106 258.327C155.234 278.319 134.613 317.998 134.613 317.998C134.613 317.998 126.837 329.853 135.966 333.474C145.095 337.095 149.44 327.661 149.44 327.661L163.467 292.251C157.102 313.482 149.498 338.162 149.498 338.162C149.498 338.162 143.914 351.236 153.576 353.18C155.451 353.645 157.422 353.529 159.229 352.849C161.036 352.168 162.594 350.954 163.696 349.368C162.743 354.057 162.152 356.877 162.152 356.877C162.152 356.877 156.721 374.144 169.185 375.402C169.819 375.442 170.456 375.442 171.091 375.402C164.32 382.391 158.836 390.52 154.891 399.415L134.213 443.363L143.437 447.518C135.623 478.087 129.01 519.024 128 572.997H153.424C154.396 547.86 157.921 498.118 170.957 460.096L172.558 460.821L179.838 441.762L172.844 566.651H179.972V573.055H333.124V566.651H340.251L333.162 441.877L340.442 460.935L342.71 459.925C349.152 478.983 353.249 500.919 355.841 521.311C358.433 541.704 359.557 560.495 360.034 573.112H385C383.914 518.967 377.434 477.916 369.715 447.594ZM183.383 365.225C183.542 364.725 183.669 364.216 183.764 363.7L186.413 337.438C186.413 343.327 186.413 347.157 186.413 347.157C186.413 347.157 185.194 359.355 193.293 359.317C189.86 361.087 186.549 363.086 183.383 365.301V365.225ZM239.776 345.004C234.126 344.929 228.5 345.772 223.12 347.501L218.831 325.793C225.363 329.539 232.435 332.252 239.796 333.836L239.776 345.004Z" fill="#666666"/>
<path d="M200.192 274.031C200.955 274.336 195.942 349.978 195.942 349.978C195.942 349.978 193.884 363.319 201.66 363.319C209.436 363.319 209.702 353.218 209.702 353.218L208.426 276.756L200.192 274.031Z" fill="url(#paint0_linear_278_4290)"/>
<path d="M212.066 291.66L202.727 290.936C203.604 291.05 210.084 359.545 210.084 359.545C210.084 359.545 209.988 371.914 218.393 370.256C226.798 368.598 225.521 359.641 225.521 359.641L212.066 291.66Z" fill="url(#paint1_linear_278_4290)"/>
<path d="M162.305 357.068C162.305 357.068 156.873 374.334 169.337 375.592C181.801 376.85 183.821 363.776 183.821 363.776L194.094 262.768L181.306 257.774C182.392 258.308 162.305 357.068 162.305 357.068Z" fill="url(#paint2_linear_278_4290)"/>
<path d="M195.123 275.727L185.327 274.069C186.223 274.26 186.471 347.234 186.471 347.234C186.471 347.234 185.175 360.27 194.189 359.336C203.204 358.402 202.708 348.835 202.708 348.835L195.123 275.727Z" fill="url(#paint3_linear_278_4290)"/>
<path d="M149.574 338.391C149.574 338.391 143.99 351.465 153.652 353.409C163.315 355.353 165.869 345.29 165.869 345.29L181.611 267.151L172.082 262.253C172.882 262.844 149.574 338.391 149.574 338.391Z" fill="url(#paint4_linear_278_4290)"/>
<path d="M134.69 318.227C134.69 318.227 126.914 330.081 136.043 333.702C145.172 337.323 149.517 327.89 149.517 327.89L178.847 253.848L170.29 247.331C171.034 247.998 134.69 318.227 134.69 318.227Z" fill="url(#paint5_linear_278_4290)"/>
<path d="M273.719 334.179V349.749H274.748C346.178 354.228 352.982 402.674 352.982 402.674H333.028V573.093H179.876V402.674H159.865C159.865 402.674 166.726 354.228 238.118 349.749H239.795V333.912C205.014 326.441 183.688 295.796 172.749 262.367C167.946 261.3 159.999 257.26 155.329 242.661C149.993 226.042 159.294 220.382 164.153 218.591C163.982 216.113 163.829 213.655 163.753 211.272C163.753 209.595 163.753 207.956 163.753 206.374C158.874 153.354 205.3 113.58 256.529 113.58C307.757 113.58 353.897 154.536 349.323 206.374C348.98 210.3 349.209 214.436 348.999 218.648C353.916 220.554 362.95 226.271 357.671 242.661C353.706 255.03 347.36 259.814 342.596 261.719C333.486 295.757 313.684 327.204 273.719 334.179Z" fill="url(#paint6_linear_278_4290)"/>
<path d="M385 572.997H360.034C359.081 547.764 355.593 497.832 342.71 459.811C340.886 454.349 338.748 448.997 336.306 443.783L338.441 405.971L338.612 402.769L339.127 393.583L340.061 377.25V376.317C342.175 379.057 344.086 381.949 345.778 384.969C346.788 386.722 347.913 388.781 349.114 391.068C350.829 394.384 352.716 398.291 354.698 402.846C359.016 412.894 362.733 423.191 365.828 433.682C367.143 438.084 368.458 442.773 369.639 447.766C377.434 477.916 383.914 518.967 385 572.997Z" fill="url(#paint7_linear_278_4290)"/>
<path d="M177.551 443.783C175.03 449.122 172.815 454.6 170.919 460.192C157.883 498.213 154.358 547.955 153.386 573.093H128C129.105 519.12 135.623 478.107 143.532 447.861C143.99 446.146 144.428 444.469 144.886 442.83C145.915 439.018 146.982 435.435 148.049 432.024C150.108 425.372 152.204 419.388 154.262 414.033C155.368 411.136 156.467 408.411 157.559 405.857C158.322 404.084 159.065 402.407 159.789 400.806L160.723 398.786C160.914 398.405 161.085 398.005 161.257 397.643C164.602 390.248 168.709 383.222 173.511 376.679L173.721 376.431L174.254 385.655L174.578 391.373L174.845 396.023L175.226 402.827V403.741L175.722 412.489L176.389 424.115L177.551 443.783Z" fill="url(#paint8_linear_278_4290)"/>
<path d="M154.891 399.682C173.949 357.144 216.449 351.541 216.449 351.541C197.867 371.571 227.065 402.674 227.065 402.674C227.065 402.674 235.24 411.727 239.891 414.452L238.252 566.689H172.749L179.743 441.877L172.463 460.935L134.213 443.783L154.891 399.682Z" fill="url(#paint9_linear_278_4290)"/>
<path d="M358.014 399.682C338.956 357.144 296.456 351.541 296.456 351.541C315.057 371.571 285.84 402.674 285.84 402.674C285.84 402.674 277.683 411.727 273.014 414.452L274.653 566.689H340.156L333.162 441.877L340.461 460.935L378.711 443.783L358.014 399.682Z" fill="url(#paint10_linear_278_4290)"/>
<path d="M304.155 525.466C296.303 533.756 291.138 541.589 292.587 542.981C294.035 544.372 301.582 538.75 309.434 530.478C317.286 522.207 322.451 514.355 320.984 512.964C319.516 511.573 311.988 517.176 304.155 525.466Z" fill="url(#paint11_linear_278_4290)"/>
<path d="M294.092 461.45C305.337 463.355 314.732 463.355 315.056 461.297C315.38 459.239 306.556 456.17 295.312 454.265C284.068 452.359 274.672 452.359 274.348 454.398C274.024 456.437 282.848 459.544 294.092 461.45Z" fill="url(#paint12_linear_278_4290)"/>
<path d="M273.548 464.099C277.737 468.11 282.373 471.627 287.365 474.581C297.066 480.565 305.794 484.11 306.843 482.337C307.891 480.565 300.896 474.371 291.196 468.387C283.573 463.718 276.712 460.611 273.51 460.249L273.548 464.099Z" fill="url(#paint13_linear_278_4290)"/>
<path d="M291.31 498.728C292.93 497.546 288.794 489.198 282.047 479.917C279.486 476.346 276.664 472.97 273.604 469.816L273.738 480.718C274.5 481.861 275.32 483.024 276.177 484.205C282.924 493.334 289.69 499.909 291.31 498.728Z" fill="url(#paint14_linear_278_4290)"/>
<path d="M355.155 393.945C353.383 394.803 354.297 403.951 357.309 414.719C360.32 425.487 364.436 434.177 366.38 433.625C368.324 433.072 367.41 424.095 364.475 413.461L357.995 399.682C357.118 397.681 356.146 395.794 355.155 393.945Z" fill="url(#paint15_linear_278_4290)"/>
<path d="M342.557 414.223C341.28 425.563 341.852 434.94 343.853 435.187C345.854 435.435 348.503 426.402 349.799 415.062C351.095 403.722 350.504 394.365 348.503 394.098C346.502 393.831 343.853 402.884 342.557 414.223Z" fill="url(#paint16_linear_278_4290)"/>
<path d="M329.083 408.22C323.632 418.245 320.64 427.145 322.394 428.098C324.147 429.051 330.017 421.713 335.468 411.708C340.918 401.702 343.929 392.783 342.157 391.83C340.385 390.877 334.553 398.214 329.083 408.22Z" fill="url(#paint17_linear_278_4290)"/>
<path d="M337.145 387.313C335.868 385.769 327.616 390.362 318.868 397.585C310.12 404.808 303.907 411.936 305.184 413.48C306.461 415.024 314.713 410.45 323.461 403.208C332.209 395.965 338.422 388.876 337.145 387.313Z" fill="url(#paint18_linear_278_4290)"/>
<path d="M315.533 390.839C326.434 387.466 334.782 383.216 334.191 381.31C333.6 379.404 324.281 380.567 313.379 383.94C302.478 387.313 294.131 391.563 294.721 393.469C295.312 395.375 304.632 394.231 315.533 390.839Z" fill="url(#paint19_linear_278_4290)"/>
<path d="M178.161 514.393C178.27 508.75 177.753 503.113 176.617 497.584L174.521 535.033C176.522 535.014 178.161 525.733 178.161 514.393Z" fill="url(#paint20_linear_278_4290)"/>
<path d="M192.226 518.834C196.609 508.257 198.515 499.052 196.609 498.327C194.704 497.603 189.748 505.531 185.46 516.09C181.172 526.648 179.209 535.834 181.058 536.596C182.907 537.359 187.938 529.392 192.226 518.834Z" fill="url(#paint21_linear_278_4290)"/>
<path d="M203.585 528.249C211.532 520.073 216.811 512.297 215.382 510.906C213.953 509.514 206.329 515.003 198.363 523.179C190.397 531.355 185.137 539.112 186.585 540.522C188.033 541.933 195.638 536.425 203.585 528.249Z" fill="url(#paint22_linear_278_4290)"/>
<path d="M239.128 486.359L239.509 449.672C238.118 452.473 237.184 460.096 237.28 469.149C237.231 474.938 237.851 480.713 239.128 486.359Z" fill="url(#paint23_linear_278_4290)"/>
<path d="M219.003 485.425C220.909 486.168 225.769 478.145 229.943 467.529C234.116 456.914 235.965 447.709 234.097 446.984C232.23 446.26 227.332 454.265 223.158 464.88C218.984 475.496 217.135 484.701 219.003 485.425Z" fill="url(#paint24_linear_278_4290)"/>
<path d="M211.685 455.599C203.833 463.87 198.649 471.684 200.097 473.075C201.546 474.466 209.112 468.882 216.964 460.611C224.816 452.34 230.019 444.507 228.551 443.135C227.084 441.762 219.479 447.327 211.685 455.599Z" fill="url(#paint25_linear_278_4290)"/>
<path d="M204.557 442.677C194.17 447.385 186.413 452.683 187.233 454.512C188.052 456.342 197.162 454.017 207.549 449.309C217.936 444.602 225.692 439.304 224.873 437.474C224.053 435.645 214.944 438.065 204.557 442.677Z" fill="url(#paint26_linear_278_4290)"/>
<path d="M166.574 387.428C166.364 389.333 175.379 392.059 186.718 393.297C198.058 394.536 207.415 393.907 207.682 391.906C207.949 389.905 198.877 387.294 187.538 386.055C176.198 384.817 166.802 385.445 166.574 387.428Z" fill="url(#paint27_linear_278_4290)"/>
<path d="M200.669 413.385C201.622 411.631 194.265 405.761 184.222 400.387C174.178 395.013 165.278 392.02 164.325 393.793C163.372 395.565 170.728 401.416 180.772 406.791C190.816 412.165 199.716 415.195 200.669 413.385Z" fill="url(#paint28_linear_278_4290)"/>
<path d="M186.146 430.671C187.69 429.394 183.059 421.141 175.798 412.432C168.537 403.722 161.371 397.547 159.827 398.824C158.283 400.101 162.914 408.353 170.176 417.063C177.437 425.773 184.603 431.947 186.146 430.671Z" fill="url(#paint29_linear_278_4290)"/>
<path d="M152.909 403.894C152.642 407.305 153.957 414.509 156.511 422.609C159.942 433.491 164.268 441.82 166.174 441.21C168.08 440.6 166.879 431.299 163.448 420.417C160.018 409.535 155.825 401.511 153.919 401.835L152.909 403.894Z" fill="url(#paint30_linear_278_4290)"/>
<path d="M143.704 443.478C145.705 443.63 148.087 434.558 149.002 423.181C149.33 419.308 149.431 415.42 149.307 411.536L141.455 428.25C141.188 436.883 142.046 443.344 143.704 443.478Z" fill="url(#paint31_linear_278_4290)"/>
<path d="M195.695 376.926L210.579 373.324L204.747 391.277L239.891 414.452C239.891 414.452 214.677 382.053 216.335 360.975C216.907 353.942 239.796 349.749 239.796 349.749V345.08C220.833 344.68 198.268 355.657 195.695 376.926Z" fill="url(#paint32_linear_278_4290)"/>
<path d="M317.801 376.926L302.917 373.267L308.767 391.22L273.014 414.395C273.014 414.395 298.838 381.996 297.161 360.918C296.589 353.885 273.719 349.692 273.719 349.692V345.023C292.682 344.68 315.228 355.657 317.801 376.926Z" fill="url(#paint33_linear_278_4290)"/>
<path d="M278.56 425.658C278.556 424.843 278.794 424.045 279.244 423.366C279.694 422.686 280.336 422.156 281.088 421.841C281.84 421.527 282.668 421.443 283.468 421.599C284.268 421.756 285.003 422.147 285.58 422.722C286.158 423.296 286.552 424.03 286.712 424.829C286.873 425.628 286.792 426.457 286.481 427.21C286.17 427.963 285.643 428.607 284.965 429.061C284.288 429.514 283.491 429.756 282.676 429.756C281.588 429.756 280.544 429.325 279.772 428.557C279.001 427.789 278.565 426.747 278.56 425.658Z" fill="url(#paint34_linear_278_4290)"/>
<path d="M282.638 462.212C284.912 462.212 286.755 460.369 286.755 458.095C286.755 455.822 284.912 453.979 282.638 453.979C280.365 453.979 278.522 455.822 278.522 458.095C278.522 460.369 280.365 462.212 282.638 462.212Z" fill="url(#paint35_linear_278_4290)"/>
<path d="M282.638 498.88C284.912 498.88 286.755 497.037 286.755 494.763C286.755 492.49 284.912 490.647 282.638 490.647C280.365 490.647 278.522 492.49 278.522 494.763C278.522 497.037 280.365 498.88 282.638 498.88Z" fill="url(#paint36_linear_278_4290)"/>
<path d="M328.835 235.495H279.017C276.628 235.39 274.266 236.048 272.275 237.374C270.285 238.7 268.768 240.625 267.944 242.871H244.979C244.152 240.624 242.632 238.697 240.638 237.372C238.644 236.046 236.28 235.389 233.887 235.495H184.088C177.761 235.495 172.653 239.898 172.653 245.31C172.653 245.31 178.923 281.521 209.15 281.521C231.181 281.521 240.348 262.177 243.683 251.733H269.259C272.595 262.177 281.762 281.521 303.812 281.521C334.019 281.521 340.308 245.31 340.308 245.31C340.289 239.86 335.144 235.495 328.835 235.495Z" fill="url(#paint37_linear_278_4290)"/>
<path d="M182.297 141.348C173.93 145.159 172.958 160.406 172.958 160.406C178.066 156.004 201.298 172.203 201.298 172.203C201.298 172.203 201.527 167.572 211.837 163.493C211.856 163.474 195.847 135.04 182.297 141.348Z" fill="url(#paint38_linear_278_4290)"/>
<path d="M157.96 222.46C165.583 217.18 169.395 226.786 169.395 226.786L194.704 193.72C194.704 193.72 172.654 195.797 161.276 200.79C149.898 205.784 157.96 222.46 157.96 222.46Z" fill="url(#paint39_linear_278_4290)"/>
<path d="M165.45 178.187C154.415 181.37 145.248 196.998 163.296 204.869C163.296 204.869 163.906 193.796 194.723 191.89C194.704 191.814 176.465 175.062 165.45 178.187Z" fill="url(#paint40_linear_278_4290)"/>
<path d="M226.283 111.503C217.326 107.481 209.131 125.892 209.131 125.892C218.145 121.356 231.276 157.547 231.276 157.547L250.449 156.289C250.449 156.289 235.793 115.81 226.283 111.503Z" fill="url(#paint41_linear_278_4290)"/>
<path d="M203.032 124.519C193.503 126.425 188.739 141.862 188.739 141.862C196.362 134.563 213.953 163.017 213.953 163.017C213.953 163.017 218.584 160.044 229.504 158.233C229.504 158.233 218.546 121.375 203.032 124.519Z" fill="url(#paint42_linear_278_4290)"/>
<path d="M166.116 162.197C159.275 168.487 162.305 180.646 162.305 180.646C173.035 168.582 194.799 191.814 194.799 191.814C194.799 191.814 190.797 180.894 199.506 174.052C199.43 174.052 177.056 152.001 166.116 162.197Z" fill="url(#paint43_linear_278_4290)"/>
<path d="M330.608 141.348C338.975 145.159 339.947 160.406 339.947 160.406C334.858 156.004 311.607 172.203 311.607 172.203C311.607 172.203 311.397 167.572 301.068 163.493C301.068 163.474 317.077 135.04 330.608 141.348Z" fill="url(#paint44_linear_278_4290)"/>
<path d="M354.945 222.46C347.322 217.18 343.51 226.786 343.51 226.786L318.125 193.72C318.125 193.72 340.194 195.797 351.572 200.79C362.95 205.784 354.945 222.46 354.945 222.46Z" fill="url(#paint45_linear_278_4290)"/>
<path d="M347.475 178.187C358.509 181.37 367.657 196.998 349.609 204.869C349.609 204.869 349.018 193.796 318.182 191.89C318.182 191.814 336.459 175.062 347.475 178.187Z" fill="url(#paint46_linear_278_4290)"/>
<path d="M286.641 111.503C295.598 107.481 303.793 125.892 303.793 125.892C294.779 121.356 281.628 157.547 281.628 157.547L262.456 156.289C262.456 156.289 277.131 115.81 286.641 111.503Z" fill="url(#paint47_linear_278_4290)"/>
<path d="M309.892 124.519C319.421 126.425 324.166 141.862 324.166 141.862C316.638 134.563 298.952 163.017 298.952 163.017C298.952 163.017 294.34 160.044 283.42 158.233C283.42 158.233 294.359 121.375 309.892 124.519Z" fill="url(#paint48_linear_278_4290)"/>
<path d="M346.884 162.197C353.726 168.487 350.695 180.646 350.695 180.646C339.966 168.582 318.296 191.814 318.296 191.814C318.296 191.814 322.318 180.894 313.589 174.052C313.475 174.052 335.849 152.001 346.884 162.197Z" fill="url(#paint49_linear_278_4290)"/>
<path d="M256.452 103.136C227.865 102.907 232.534 117.925 232.534 117.925C239.109 114.114 250.182 155.032 254.013 158.405C254.676 159.083 255.564 159.496 256.51 159.568C257.518 159.457 258.449 158.974 259.12 158.214C262.284 155.07 263.142 149.657 264.666 145.541C266.286 141.1 268.002 136.698 269.888 132.371C271.438 128.489 273.353 124.763 275.606 121.241C276.247 120.098 277.124 119.104 278.179 118.326C278.179 118.326 280.542 117.334 280.351 117.925C280.466 117.887 285.002 102.907 256.452 103.136Z" fill="url(#paint50_linear_278_4290)"/>
</g>
<defs>
<linearGradient id="paint0_linear_278_4290" x1="201.755" y1="374.639" x2="204.614" y2="310.813" gradientUnits="userSpaceOnUse">
<stop stop-color="#24201A"/>
<stop offset="0.49" stop-color="#1F1C18"/>
<stop offset="1" stop-color="#131211"/>
</linearGradient>
<linearGradient id="paint1_linear_278_4290" x1="206.73" y1="291.431" x2="217.402" y2="357.868" gradientUnits="userSpaceOnUse">
<stop stop-color="#131211"/>
<stop offset="0.51" stop-color="#1F1C18"/>
<stop offset="1" stop-color="#24201A"/>
</linearGradient>
<linearGradient id="paint2_linear_278_4290" x1="166.555" y1="385.064" x2="185.537" y2="296.558" gradientUnits="userSpaceOnUse">
<stop stop-color="#24201A"/>
<stop offset="0.49" stop-color="#1F1C18"/>
<stop offset="1" stop-color="#131211"/>
</linearGradient>
<linearGradient id="paint3_linear_278_4290" x1="195.276" y1="369.456" x2="192.912" y2="302.313" gradientUnits="userSpaceOnUse">
<stop stop-color="#24201A"/>
<stop offset="0.51" stop-color="#171613"/>
<stop offset="1" stop-color="#131211"/>
</linearGradient>
<linearGradient id="paint4_linear_278_4290" x1="139.797" y1="368.922" x2="162.572" y2="318.151" gradientUnits="userSpaceOnUse">
<stop stop-color="#24201A"/>
<stop offset="0.49" stop-color="#1F1C18"/>
<stop offset="1" stop-color="#131211"/>
</linearGradient>
<linearGradient id="paint5_linear_278_4290" x1="122.874" y1="364.615" x2="176.256" y2="248.588" gradientUnits="userSpaceOnUse">
<stop stop-color="#24201A"/>
<stop offset="0.49" stop-color="#1F1C18"/>
<stop offset="1" stop-color="#131211"/>
</linearGradient>
<linearGradient id="paint6_linear_278_4290" x1="256.452" y1="113.58" x2="256.452" y2="573.093" gradientUnits="userSpaceOnUse">
<stop offset="0.06" stop-color="#554136"/>
<stop offset="0.19" stop-color="#6A574D"/>
<stop offset="0.28" stop-color="#746258"/>
<stop offset="0.38" stop-color="#6F5D53"/>
<stop offset="0.73" stop-color="#614E44"/>
<stop offset="1" stop-color="#655248"/>
</linearGradient>
<linearGradient id="paint7_linear_278_4290" x1="360.644" y1="572.673" x2="360.644" y2="438.084" gradientUnits="userSpaceOnUse">
<stop offset="0.14" stop-color="#746258"/>
<stop offset="0.47" stop-color="#68554B"/>
<stop offset="1" stop-color="#4D392F"/>
</linearGradient>
<linearGradient id="paint8_linear_278_4290" x1="152.699" y1="573.226" x2="152.699" y2="432.729" gradientUnits="userSpaceOnUse">
<stop offset="0.14" stop-color="#746258"/>
<stop offset="0.47" stop-color="#68554B"/>
<stop offset="1" stop-color="#4D392F"/>
</linearGradient>
<linearGradient id="paint9_linear_278_4290" x1="187.061" y1="350.759" x2="187.061" y2="596.687" gradientUnits="userSpaceOnUse">
<stop stop-color="#DB7373"/>
<stop offset="0.01" stop-color="#DB7272"/>
<stop offset="0.45" stop-color="#CD4A4A"/>
<stop offset="0.79" stop-color="#C53232"/>
<stop offset="1" stop-color="#C22929"/>
</linearGradient>
<linearGradient id="paint10_linear_278_4290" x1="325.863" y1="350.759" x2="325.863" y2="596.687" gradientUnits="userSpaceOnUse">
<stop stop-color="#DB7373"/>
<stop offset="0.01" stop-color="#DB7272"/>
<stop offset="0.45" stop-color="#CD4A4A"/>
<stop offset="0.79" stop-color="#C53232"/>
<stop offset="1" stop-color="#C22929"/>
</linearGradient>
<linearGradient id="paint11_linear_278_4290" x1="279.222" y1="558.109" x2="332.304" y2="501.996" gradientUnits="userSpaceOnUse">
<stop stop-color="#E8FF75"/>
<stop offset="0.24" stop-color="#E6FB7E"/>
<stop offset="0.64" stop-color="#E1F196"/>
<stop offset="1" stop-color="#DCE5B2"/>
</linearGradient>
<linearGradient id="paint12_linear_278_4290" x1="334.64" y1="463.77" x2="258.481" y2="450.875" gradientUnits="userSpaceOnUse">
<stop stop-color="#E8FF75"/>
<stop offset="0.24" stop-color="#E6FB7E"/>
<stop offset="0.64" stop-color="#E1F196"/>
<stop offset="1" stop-color="#DCE5B2"/>
</linearGradient>
<linearGradient id="paint13_linear_278_4290" x1="289.695" y1="543.807" x2="224.039" y2="502.868" gradientUnits="userSpaceOnUse">
<stop stop-color="#E8FF75"/>
<stop offset="0.24" stop-color="#E6FB7E"/>
<stop offset="0.64" stop-color="#E1F196"/>
<stop offset="1" stop-color="#DCE5B2"/>
</linearGradient>
<linearGradient id="paint14_linear_278_4290" x1="288.79" y1="556.617" x2="243.217" y2="494.051" gradientUnits="userSpaceOnUse">
<stop stop-color="#E8FF75"/>
<stop offset="0.24" stop-color="#E6FB7E"/>
<stop offset="0.64" stop-color="#E1F196"/>
<stop offset="1" stop-color="#DCE5B2"/>
</linearGradient>
<linearGradient id="paint15_linear_278_4290" x1="372.573" y1="452.214" x2="351.77" y2="377.805" gradientUnits="userSpaceOnUse">
<stop stop-color="#E8FF75"/>
<stop offset="0.24" stop-color="#E6FB7E"/>
<stop offset="0.64" stop-color="#E1F196"/>
<stop offset="1" stop-color="#DCE5B2"/>
</linearGradient>
<linearGradient id="paint16_linear_278_4290" x1="341.123" y1="454.723" x2="349.853" y2="377.975" gradientUnits="userSpaceOnUse">
<stop stop-color="#E8FF75"/>
<stop offset="0.24" stop-color="#E6FB7E"/>
<stop offset="0.64" stop-color="#E1F196"/>
<stop offset="1" stop-color="#DCE5B2"/>
</linearGradient>
<linearGradient id="paint17_linear_278_4290" x1="312.223" y1="445.185" x2="349.187" y2="377.361" gradientUnits="userSpaceOnUse">
<stop stop-color="#E8FF75"/>
<stop offset="0.24" stop-color="#E6FB7E"/>
<stop offset="0.64" stop-color="#E1F196"/>
<stop offset="1" stop-color="#DCE5B2"/>
</linearGradient>
<linearGradient id="paint18_linear_278_4290" x1="290.843" y1="425.68" x2="350.608" y2="376.746" gradientUnits="userSpaceOnUse">
<stop stop-color="#E8FF75"/>
<stop offset="0.24" stop-color="#E6FB7E"/>
<stop offset="0.64" stop-color="#E1F196"/>
<stop offset="1" stop-color="#DCE5B2"/>
</linearGradient>
<linearGradient id="paint19_linear_278_4290" x1="275.282" y1="398.315" x2="349.07" y2="375.473" gradientUnits="userSpaceOnUse">
<stop stop-color="#E8FF75"/>
<stop offset="0.24" stop-color="#E6FB7E"/>
<stop offset="0.64" stop-color="#E1F196"/>
<stop offset="1" stop-color="#DCE5B2"/>
</linearGradient>
<linearGradient id="paint20_linear_278_4290" x1="176.332" y1="473.971" x2="176.332" y2="551.233" gradientUnits="userSpaceOnUse">
<stop stop-color="#E8FF75"/>
<stop offset="0.24" stop-color="#E6FB7E"/>
<stop offset="0.64" stop-color="#E1F196"/>
<stop offset="1" stop-color="#DCE5B2"/>
</linearGradient>
<linearGradient id="paint21_linear_278_4290" x1="204.117" y1="479.736" x2="175.057" y2="551.304" gradientUnits="userSpaceOnUse">
<stop stop-color="#E8FF75"/>
<stop offset="0.24" stop-color="#E6FB7E"/>
<stop offset="0.64" stop-color="#E1F196"/>
<stop offset="1" stop-color="#DCE5B2"/>
</linearGradient>
<linearGradient id="paint22_linear_278_4290" x1="229.33" y1="497.315" x2="175.47" y2="552.682" gradientUnits="userSpaceOnUse">
<stop stop-color="#E8FF75"/>
<stop offset="0.24" stop-color="#E6FB7E"/>
<stop offset="0.64" stop-color="#E1F196"/>
<stop offset="1" stop-color="#DCE5B2"/>
</linearGradient>
<linearGradient id="paint23_linear_278_4290" x1="238.946" y1="510.05" x2="238.043" y2="432.794" gradientUnits="userSpaceOnUse">
<stop stop-color="#E8FF75"/>
<stop offset="0.24" stop-color="#E6FB7E"/>
<stop offset="0.64" stop-color="#E1F196"/>
<stop offset="1" stop-color="#DCE5B2"/>
</linearGradient>
<linearGradient id="paint24_linear_278_4290" x1="212.589" y1="504.603" x2="240.811" y2="432.7" gradientUnits="userSpaceOnUse">
<stop stop-color="#E8FF75"/>
<stop offset="0.24" stop-color="#E6FB7E"/>
<stop offset="0.64" stop-color="#E1F196"/>
<stop offset="1" stop-color="#DCE5B2"/>
</linearGradient>
<linearGradient id="paint25_linear_278_4290" x1="185.684" y1="487.732" x2="238.894" y2="431.739" gradientUnits="userSpaceOnUse">
<stop stop-color="#E8FF75"/>
<stop offset="0.24" stop-color="#E6FB7E"/>
<stop offset="0.64" stop-color="#E1F196"/>
<stop offset="1" stop-color="#DCE5B2"/>
</linearGradient>
<linearGradient id="paint26_linear_278_4290" x1="170.084" y1="463.089" x2="240.45" y2="431.229" gradientUnits="userSpaceOnUse">
<stop stop-color="#E8FF75"/>
<stop offset="0.24" stop-color="#E6FB7E"/>
<stop offset="0.64" stop-color="#E1F196"/>
<stop offset="1" stop-color="#DCE5B2"/>
</linearGradient>
<linearGradient id="paint27_linear_278_4290" x1="227.805" y1="393.643" x2="151.016" y2="385.274" gradientUnits="userSpaceOnUse">
<stop stop-color="#E8FF75"/>
<stop offset="0.24" stop-color="#E6FB7E"/>
<stop offset="0.64" stop-color="#E1F196"/>
<stop offset="1" stop-color="#DCE5B2"/>
</linearGradient>
<linearGradient id="paint28_linear_278_4290" x1="241.979" y1="365.359" x2="174.005" y2="329.055" gradientUnits="userSpaceOnUse">
<stop stop-color="#E8FF75"/>
<stop offset="0.24" stop-color="#E6FB7E"/>
<stop offset="0.64" stop-color="#E1F196"/>
<stop offset="1" stop-color="#DCE5B2"/>
</linearGradient>
<linearGradient id="paint29_linear_278_4290" x1="199.78" y1="445.174" x2="150.565" y2="385.64" gradientUnits="userSpaceOnUse">
<stop stop-color="#E8FF75"/>
<stop offset="0.24" stop-color="#E6FB7E"/>
<stop offset="0.64" stop-color="#E1F196"/>
<stop offset="1" stop-color="#DCE5B2"/>
</linearGradient>
<linearGradient id="paint30_linear_278_4290" x1="172.226" y1="459.663" x2="149.037" y2="385.983" gradientUnits="userSpaceOnUse">
<stop stop-color="#E8FF75"/>
<stop offset="0.24" stop-color="#E6FB7E"/>
<stop offset="0.64" stop-color="#E1F196"/>
<stop offset="1" stop-color="#DCE5B2"/>
</linearGradient>
<linearGradient id="paint31_linear_278_4290" x1="143.507" y1="463.568" x2="149.742" y2="386.577" gradientUnits="userSpaceOnUse">
<stop stop-color="#E8FF75"/>
<stop offset="0.24" stop-color="#E6FB7E"/>
<stop offset="0.64" stop-color="#E1F196"/>
<stop offset="1" stop-color="#DCE5B2"/>
</linearGradient>
<linearGradient id="paint32_linear_278_4290" x1="259.673" y1="411.479" x2="214.486" y2="359.164" gradientUnits="userSpaceOnUse">
<stop stop-color="#CB6D6D"/>
<stop offset="0.42" stop-color="#BE4848"/>
<stop offset="0.78" stop-color="#B63030"/>
<stop offset="1" stop-color="#B32727"/>
</linearGradient>
<linearGradient id="paint33_linear_278_4290" x1="253.537" y1="411.822" x2="299.01" y2="359.183" gradientUnits="userSpaceOnUse">
<stop stop-color="#CB6D6D"/>
<stop offset="0.42" stop-color="#BE4848"/>
<stop offset="0.78" stop-color="#B63030"/>
<stop offset="1" stop-color="#B32727"/>
</linearGradient>
<linearGradient id="paint34_linear_278_4290" x1="282.638" y1="420.627" x2="282.638" y2="429.031" gradientUnits="userSpaceOnUse">
<stop offset="0.14" stop-color="#EAEAEC"/>
<stop offset="0.75" stop-color="#DFDFDF"/>
<stop offset="1" stop-color="#DAD9D9"/>
</linearGradient>
<linearGradient id="paint35_linear_278_4290" x1="282.638" y1="453.083" x2="282.638" y2="461.469" gradientUnits="userSpaceOnUse">
<stop offset="0.14" stop-color="#EAEAEC"/>
<stop offset="0.75" stop-color="#DFDFDF"/>
<stop offset="1" stop-color="#DAD9D9"/>
</linearGradient>
<linearGradient id="paint36_linear_278_4290" x1="282.638" y1="489.732" x2="282.638" y2="498.118" gradientUnits="userSpaceOnUse">
<stop offset="0.14" stop-color="#EAEAEC"/>
<stop offset="0.75" stop-color="#DFDFDF"/>
<stop offset="1" stop-color="#DAD9D9"/>
</linearGradient>
<linearGradient id="paint37_linear_278_4290" x1="256.452" y1="236.868" x2="256.452" y2="275.308" gradientUnits="userSpaceOnUse">
<stop stop-color="#24201A"/>
<stop offset="1" stop-color="#131211"/>
</linearGradient>
<linearGradient id="paint38_linear_278_4290" x1="192.398" y1="140.433" x2="192.398" y2="172.184" gradientUnits="userSpaceOnUse">
<stop stop-color="#24201A"/>
<stop offset="0.49" stop-color="#1F1C18"/>
<stop offset="1" stop-color="#131211"/>
</linearGradient>
<linearGradient id="paint39_linear_278_4290" x1="174.96" y1="193.72" x2="174.96" y2="226.786" gradientUnits="userSpaceOnUse">
<stop stop-color="#24201A"/>
<stop offset="0.49" stop-color="#1F1C18"/>
<stop offset="1" stop-color="#131211"/>
</linearGradient>
<linearGradient id="paint40_linear_278_4290" x1="173.911" y1="177.787" x2="173.911" y2="204.793" gradientUnits="userSpaceOnUse">
<stop stop-color="#24201A"/>
<stop offset="0.49" stop-color="#1F1C18"/>
<stop offset="1" stop-color="#131211"/>
</linearGradient>
<linearGradient id="paint41_linear_278_4290" x1="229.79" y1="110.931" x2="229.79" y2="157.547" gradientUnits="userSpaceOnUse">
<stop stop-color="#24201A"/>
<stop offset="0.49" stop-color="#1F1C18"/>
<stop offset="1" stop-color="#131211"/>
</linearGradient>
<linearGradient id="paint42_linear_278_4290" x1="209.131" y1="124.329" x2="209.131" y2="163.017" gradientUnits="userSpaceOnUse">
<stop stop-color="#24201A"/>
<stop offset="0.49" stop-color="#1F1C18"/>
<stop offset="1" stop-color="#131211"/>
</linearGradient>
<linearGradient id="paint43_linear_278_4290" x1="180.486" y1="159.491" x2="180.486" y2="191.814" gradientUnits="userSpaceOnUse">
<stop stop-color="#24201A"/>
<stop offset="0.49" stop-color="#1F1C18"/>
<stop offset="1" stop-color="#131211"/>
</linearGradient>
<linearGradient id="paint44_linear_278_4290" x1="320.507" y1="140.433" x2="320.507" y2="172.184" gradientUnits="userSpaceOnUse">
<stop stop-color="#24201A"/>
<stop offset="0.49" stop-color="#1F1C18"/>
<stop offset="1" stop-color="#131211"/>
</linearGradient>
<linearGradient id="paint45_linear_278_4290" x1="337.945" y1="193.72" x2="337.945" y2="226.786" gradientUnits="userSpaceOnUse">
<stop stop-color="#24201A"/>
<stop offset="0.49" stop-color="#1F1C18"/>
<stop offset="1" stop-color="#131211"/>
</linearGradient>
<linearGradient id="paint46_linear_278_4290" x1="339.013" y1="177.787" x2="339.013" y2="204.793" gradientUnits="userSpaceOnUse">
<stop stop-color="#24201A"/>
<stop offset="0.49" stop-color="#1F1C18"/>
<stop offset="1" stop-color="#131211"/>
</linearGradient>
<linearGradient id="paint47_linear_278_4290" x1="283.134" y1="110.931" x2="283.134" y2="157.547" gradientUnits="userSpaceOnUse">
<stop stop-color="#24201A"/>
<stop offset="0.49" stop-color="#1F1C18"/>
<stop offset="1" stop-color="#131211"/>
</linearGradient>
<linearGradient id="paint48_linear_278_4290" x1="303.793" y1="124.329" x2="303.793" y2="163.017" gradientUnits="userSpaceOnUse">
<stop stop-color="#24201A"/>
<stop offset="0.49" stop-color="#1F1C18"/>
<stop offset="1" stop-color="#131211"/>
</linearGradient>
<linearGradient id="paint49_linear_278_4290" x1="332.419" y1="159.491" x2="332.419" y2="191.814" gradientUnits="userSpaceOnUse">
<stop stop-color="#24201A"/>
<stop offset="0.49" stop-color="#1F1C18"/>
<stop offset="1" stop-color="#131211"/>
</linearGradient>
<linearGradient id="paint50_linear_278_4290" x1="256.452" y1="103.136" x2="256.452" y2="159.568" gradientUnits="userSpaceOnUse">
<stop stop-color="#24201A"/>
<stop offset="0.49" stop-color="#1F1C18"/>
<stop offset="1" stop-color="#131211"/>
</linearGradient>
<clipPath id="clip0_278_4290">
<rect width="512" height="512" rx="256" fill="white"/>
</clipPath>
</defs>
</svg>
